<svg xmlns="http://www.w3.org/2000/svg" width="56" height="56" viewBox="0 0 56 56"><switch><g><path fill="#666767" d="M47.929 46.122a4 4 0 0 1-4 4H11.057a4 4 0 0 1-4-4V26.42a4 4 0 0 1 4-4h32.872a4 4 0 0 1 4 4v19.702z"/><path fill="#FFF" d="M45.929 46.044c0 1.148-.859 2.078-1.919 2.078H10.976c-1.06 0-1.919-.93-1.919-2.078V26.33c0-1.148 1.919-2.079 1.919-2.079H44.01s1.919.931 1.919 2.079v19.714z"/><path fill="#666767" d="M7.956 23.896l17.892-14.21 20.26 13.417h-2.636L25.848 12.186l-15.587 11.71zM15.12 40.952l1.413 1.414-4.631 4.631-1.414-1.414zM44.477 45.584l-1.414 1.414-4.632-4.632 1.414-1.414z"/><path fill="#FFF" d="M44.01 24.251l-17.024-8.389-16.302 8.504"/><path fill="#666767" d="M42.991 17.362v16.855l-15.255 5.669-15.741-5.669V12.795c0-1.734 1.783-3.702 3.699-3.702h18.889"/><path fill="#FFF" d="M34.866 11.449H16.377c-.955 0-2.297.862-2.297 2.298v18.951l13.655 4.817 13.171-4.534V18.213"/><path fill="#666767" d="M42.152 18.114l.549 2h-7.438c-1.104 0-2.566-1.463-2.566-2.567v-6.401h2"/><path fill="#FFF" d="M40.887 18.325H36.23a1.73 1.73 0 0 1-1.73-1.73v-4.779"/><path fill="#666767" d="M30.993 16.896a.958.958 0 0 1-.958.958H19.121a.958.958 0 0 1 0-1.916h10.915c.528 0 .957.429.957.958zM30.993 21.896a.958.958 0 0 1-.958.958H19.121a.958.958 0 0 1 0-1.916h10.915c.528 0 .957.429.957.958zM36.826 26.884a.97.97 0 0 1-.97.97H19.132a.97.97 0 1 1 0-1.939h16.724c.537 0 .97.434.97.969z"/></g></switch></svg>